<mxfile host="app.diagrams.net" modified="2023-11-17T00:44:35.083Z" agent="Mozilla/5.0 (Windows NT 10.0; Win64; x64) AppleWebKit/537.36 (KHTML, like Gecko) Chrome/119.0.0.0 Safari/537.36" etag="yuuLyo8HnvasFqk63BdP" version="22.1.2" type="onedrive">
  <diagram name="Trang-1" id="y3RqhnyYSR_u_9xNov8B">
    <mxGraphModel dx="1248" dy="636" grid="1" gridSize="10" guides="1" tooltips="1" connect="1" arrows="1" fold="1" page="1" pageScale="1" pageWidth="827" pageHeight="1169" math="0" shadow="0">
      <root>
        <mxCell id="0" />
        <mxCell id="1" parent="0" />
        <mxCell id="2CmeU6WEaaHDGmVy13jQ-1" value="" style="edgeStyle=orthogonalEdgeStyle;rounded=0;orthogonalLoop=1;jettySize=auto;html=1;" edge="1" parent="1" source="2CmeU6WEaaHDGmVy13jQ-2" target="2CmeU6WEaaHDGmVy13jQ-4">
          <mxGeometry relative="1" as="geometry" />
        </mxCell>
        <mxCell id="2CmeU6WEaaHDGmVy13jQ-2" value="start" style="ellipse;whiteSpace=wrap;html=1;" vertex="1" parent="1">
          <mxGeometry x="10" y="10" width="120" height="80" as="geometry" />
        </mxCell>
        <mxCell id="2CmeU6WEaaHDGmVy13jQ-3" value="" style="edgeStyle=orthogonalEdgeStyle;rounded=0;orthogonalLoop=1;jettySize=auto;html=1;" edge="1" parent="1" source="2CmeU6WEaaHDGmVy13jQ-4" target="2CmeU6WEaaHDGmVy13jQ-7">
          <mxGeometry relative="1" as="geometry" />
        </mxCell>
        <mxCell id="2CmeU6WEaaHDGmVy13jQ-4" value="output menu" style="shape=parallelogram;perimeter=parallelogramPerimeter;whiteSpace=wrap;html=1;fixedSize=1;" vertex="1" parent="1">
          <mxGeometry x="10" y="120" width="120" height="60" as="geometry" />
        </mxCell>
        <mxCell id="2CmeU6WEaaHDGmVy13jQ-5" value="" style="edgeStyle=orthogonalEdgeStyle;rounded=0;orthogonalLoop=1;jettySize=auto;html=1;" edge="1" parent="1" source="2CmeU6WEaaHDGmVy13jQ-7" target="2CmeU6WEaaHDGmVy13jQ-9">
          <mxGeometry relative="1" as="geometry" />
        </mxCell>
        <mxCell id="2CmeU6WEaaHDGmVy13jQ-6" value="" style="edgeStyle=orthogonalEdgeStyle;rounded=0;orthogonalLoop=1;jettySize=auto;html=1;" edge="1" parent="1" source="2CmeU6WEaaHDGmVy13jQ-7" target="2CmeU6WEaaHDGmVy13jQ-20">
          <mxGeometry relative="1" as="geometry" />
        </mxCell>
        <mxCell id="2CmeU6WEaaHDGmVy13jQ-7" value="case 1" style="rhombus;whiteSpace=wrap;html=1;" vertex="1" parent="1">
          <mxGeometry x="30" y="220" width="80" height="80" as="geometry" />
        </mxCell>
        <mxCell id="2CmeU6WEaaHDGmVy13jQ-8" value="" style="edgeStyle=orthogonalEdgeStyle;rounded=0;orthogonalLoop=1;jettySize=auto;html=1;" edge="1" parent="1" source="2CmeU6WEaaHDGmVy13jQ-9">
          <mxGeometry relative="1" as="geometry">
            <mxPoint x="330" y="260" as="targetPoint" />
          </mxGeometry>
        </mxCell>
        <mxCell id="2CmeU6WEaaHDGmVy13jQ-9" value="i&amp;lt;n" style="rhombus;whiteSpace=wrap;html=1;" vertex="1" parent="1">
          <mxGeometry x="190" y="220" width="80" height="80" as="geometry" />
        </mxCell>
        <mxCell id="2CmeU6WEaaHDGmVy13jQ-10" value="" style="edgeStyle=orthogonalEdgeStyle;rounded=0;orthogonalLoop=1;jettySize=auto;html=1;" edge="1" parent="1" source="2CmeU6WEaaHDGmVy13jQ-11">
          <mxGeometry relative="1" as="geometry">
            <mxPoint x="470" y="260" as="targetPoint" />
          </mxGeometry>
        </mxCell>
        <mxCell id="2CmeU6WEaaHDGmVy13jQ-11" value="j&amp;lt;m" style="rhombus;whiteSpace=wrap;html=1;" vertex="1" parent="1">
          <mxGeometry x="330" y="220" width="80" height="80" as="geometry" />
        </mxCell>
        <mxCell id="2CmeU6WEaaHDGmVy13jQ-12" value="" style="edgeStyle=orthogonalEdgeStyle;rounded=0;orthogonalLoop=1;jettySize=auto;html=1;" edge="1" parent="1" source="2CmeU6WEaaHDGmVy13jQ-13" target="2CmeU6WEaaHDGmVy13jQ-17">
          <mxGeometry relative="1" as="geometry" />
        </mxCell>
        <mxCell id="2CmeU6WEaaHDGmVy13jQ-13" value="input a[i][j]" style="shape=parallelogram;perimeter=parallelogramPerimeter;whiteSpace=wrap;html=1;fixedSize=1;" vertex="1" parent="1">
          <mxGeometry x="460" y="230" width="120" height="60" as="geometry" />
        </mxCell>
        <mxCell id="2CmeU6WEaaHDGmVy13jQ-14" style="edgeStyle=orthogonalEdgeStyle;rounded=0;orthogonalLoop=1;jettySize=auto;html=1;entryX=0.5;entryY=0;entryDx=0;entryDy=0;" edge="1" parent="1" source="2CmeU6WEaaHDGmVy13jQ-17" target="2CmeU6WEaaHDGmVy13jQ-9">
          <mxGeometry relative="1" as="geometry">
            <Array as="points">
              <mxPoint x="720" y="150" />
              <mxPoint x="230" y="150" />
            </Array>
          </mxGeometry>
        </mxCell>
        <mxCell id="2CmeU6WEaaHDGmVy13jQ-15" style="edgeStyle=orthogonalEdgeStyle;rounded=0;orthogonalLoop=1;jettySize=auto;html=1;entryX=0.5;entryY=1;entryDx=0;entryDy=0;" edge="1" parent="1" source="2CmeU6WEaaHDGmVy13jQ-17" target="2CmeU6WEaaHDGmVy13jQ-11">
          <mxGeometry relative="1" as="geometry">
            <Array as="points">
              <mxPoint x="720" y="340" />
              <mxPoint x="370" y="340" />
            </Array>
          </mxGeometry>
        </mxCell>
        <mxCell id="2CmeU6WEaaHDGmVy13jQ-16" style="edgeStyle=orthogonalEdgeStyle;rounded=0;orthogonalLoop=1;jettySize=auto;html=1;" edge="1" parent="1" source="2CmeU6WEaaHDGmVy13jQ-17">
          <mxGeometry relative="1" as="geometry">
            <mxPoint x="2180" y="480" as="targetPoint" />
          </mxGeometry>
        </mxCell>
        <mxCell id="2CmeU6WEaaHDGmVy13jQ-17" value="i++&lt;br&gt;j++" style="whiteSpace=wrap;html=1;" vertex="1" parent="1">
          <mxGeometry x="660" y="230" width="120" height="60" as="geometry" />
        </mxCell>
        <mxCell id="2CmeU6WEaaHDGmVy13jQ-18" value="" style="edgeStyle=orthogonalEdgeStyle;rounded=0;orthogonalLoop=1;jettySize=auto;html=1;" edge="1" parent="1" source="2CmeU6WEaaHDGmVy13jQ-20" target="2CmeU6WEaaHDGmVy13jQ-22">
          <mxGeometry relative="1" as="geometry" />
        </mxCell>
        <mxCell id="2CmeU6WEaaHDGmVy13jQ-19" value="" style="edgeStyle=orthogonalEdgeStyle;rounded=0;orthogonalLoop=1;jettySize=auto;html=1;" edge="1" parent="1" source="2CmeU6WEaaHDGmVy13jQ-20" target="2CmeU6WEaaHDGmVy13jQ-33">
          <mxGeometry relative="1" as="geometry" />
        </mxCell>
        <mxCell id="2CmeU6WEaaHDGmVy13jQ-20" value="case 2" style="rhombus;whiteSpace=wrap;html=1;" vertex="1" parent="1">
          <mxGeometry x="30" y="440" width="80" height="80" as="geometry" />
        </mxCell>
        <mxCell id="2CmeU6WEaaHDGmVy13jQ-21" value="" style="edgeStyle=orthogonalEdgeStyle;rounded=0;orthogonalLoop=1;jettySize=auto;html=1;" edge="1" parent="1" source="2CmeU6WEaaHDGmVy13jQ-22">
          <mxGeometry relative="1" as="geometry">
            <mxPoint x="330" y="480" as="targetPoint" />
          </mxGeometry>
        </mxCell>
        <mxCell id="2CmeU6WEaaHDGmVy13jQ-22" value="i&amp;lt;n" style="rhombus;whiteSpace=wrap;html=1;" vertex="1" parent="1">
          <mxGeometry x="190" y="440" width="80" height="80" as="geometry" />
        </mxCell>
        <mxCell id="2CmeU6WEaaHDGmVy13jQ-23" value="" style="edgeStyle=orthogonalEdgeStyle;rounded=0;orthogonalLoop=1;jettySize=auto;html=1;" edge="1" parent="1" source="2CmeU6WEaaHDGmVy13jQ-24">
          <mxGeometry relative="1" as="geometry">
            <mxPoint x="470" y="480" as="targetPoint" />
          </mxGeometry>
        </mxCell>
        <mxCell id="2CmeU6WEaaHDGmVy13jQ-24" value="j&amp;lt;m" style="rhombus;whiteSpace=wrap;html=1;" vertex="1" parent="1">
          <mxGeometry x="330" y="440" width="80" height="80" as="geometry" />
        </mxCell>
        <mxCell id="2CmeU6WEaaHDGmVy13jQ-25" value="" style="edgeStyle=orthogonalEdgeStyle;rounded=0;orthogonalLoop=1;jettySize=auto;html=1;" edge="1" parent="1" source="2CmeU6WEaaHDGmVy13jQ-26" target="2CmeU6WEaaHDGmVy13jQ-30">
          <mxGeometry relative="1" as="geometry" />
        </mxCell>
        <mxCell id="2CmeU6WEaaHDGmVy13jQ-26" value="output a[i][j]" style="shape=parallelogram;perimeter=parallelogramPerimeter;whiteSpace=wrap;html=1;fixedSize=1;" vertex="1" parent="1">
          <mxGeometry x="460" y="450" width="120" height="60" as="geometry" />
        </mxCell>
        <mxCell id="2CmeU6WEaaHDGmVy13jQ-27" style="edgeStyle=orthogonalEdgeStyle;rounded=0;orthogonalLoop=1;jettySize=auto;html=1;entryX=0.5;entryY=0;entryDx=0;entryDy=0;" edge="1" parent="1" source="2CmeU6WEaaHDGmVy13jQ-30" target="2CmeU6WEaaHDGmVy13jQ-22">
          <mxGeometry relative="1" as="geometry">
            <Array as="points">
              <mxPoint x="720" y="370" />
              <mxPoint x="230" y="370" />
            </Array>
          </mxGeometry>
        </mxCell>
        <mxCell id="2CmeU6WEaaHDGmVy13jQ-28" style="edgeStyle=orthogonalEdgeStyle;rounded=0;orthogonalLoop=1;jettySize=auto;html=1;entryX=0.5;entryY=1;entryDx=0;entryDy=0;" edge="1" parent="1" source="2CmeU6WEaaHDGmVy13jQ-30" target="2CmeU6WEaaHDGmVy13jQ-24">
          <mxGeometry relative="1" as="geometry">
            <Array as="points">
              <mxPoint x="720" y="560" />
              <mxPoint x="370" y="560" />
            </Array>
          </mxGeometry>
        </mxCell>
        <mxCell id="2CmeU6WEaaHDGmVy13jQ-29" style="edgeStyle=orthogonalEdgeStyle;rounded=0;orthogonalLoop=1;jettySize=auto;html=1;entryX=0.5;entryY=0;entryDx=0;entryDy=0;" edge="1" parent="1" source="2CmeU6WEaaHDGmVy13jQ-30" target="2CmeU6WEaaHDGmVy13jQ-156">
          <mxGeometry relative="1" as="geometry" />
        </mxCell>
        <mxCell id="2CmeU6WEaaHDGmVy13jQ-30" value="i++&lt;br&gt;j++" style="whiteSpace=wrap;html=1;" vertex="1" parent="1">
          <mxGeometry x="660" y="450" width="120" height="60" as="geometry" />
        </mxCell>
        <mxCell id="2CmeU6WEaaHDGmVy13jQ-31" value="" style="edgeStyle=orthogonalEdgeStyle;rounded=0;orthogonalLoop=1;jettySize=auto;html=1;" edge="1" parent="1" source="2CmeU6WEaaHDGmVy13jQ-33" target="2CmeU6WEaaHDGmVy13jQ-35">
          <mxGeometry relative="1" as="geometry" />
        </mxCell>
        <mxCell id="2CmeU6WEaaHDGmVy13jQ-32" value="" style="edgeStyle=orthogonalEdgeStyle;rounded=0;orthogonalLoop=1;jettySize=auto;html=1;" edge="1" parent="1" source="2CmeU6WEaaHDGmVy13jQ-33" target="2CmeU6WEaaHDGmVy13jQ-66">
          <mxGeometry relative="1" as="geometry" />
        </mxCell>
        <mxCell id="2CmeU6WEaaHDGmVy13jQ-33" value="case 3" style="rhombus;whiteSpace=wrap;html=1;" vertex="1" parent="1">
          <mxGeometry x="30" y="700" width="80" height="80" as="geometry" />
        </mxCell>
        <mxCell id="2CmeU6WEaaHDGmVy13jQ-34" value="" style="edgeStyle=orthogonalEdgeStyle;rounded=0;orthogonalLoop=1;jettySize=auto;html=1;" edge="1" parent="1" source="2CmeU6WEaaHDGmVy13jQ-35">
          <mxGeometry relative="1" as="geometry">
            <mxPoint x="310" y="740" as="targetPoint" />
          </mxGeometry>
        </mxCell>
        <mxCell id="2CmeU6WEaaHDGmVy13jQ-35" value="i&amp;lt;n" style="rhombus;whiteSpace=wrap;html=1;" vertex="1" parent="1">
          <mxGeometry x="170" y="700" width="80" height="80" as="geometry" />
        </mxCell>
        <mxCell id="2CmeU6WEaaHDGmVy13jQ-36" value="" style="edgeStyle=orthogonalEdgeStyle;rounded=0;orthogonalLoop=1;jettySize=auto;html=1;" edge="1" parent="1" source="2CmeU6WEaaHDGmVy13jQ-37" target="2CmeU6WEaaHDGmVy13jQ-43">
          <mxGeometry relative="1" as="geometry">
            <mxPoint x="450" y="740" as="targetPoint" />
          </mxGeometry>
        </mxCell>
        <mxCell id="2CmeU6WEaaHDGmVy13jQ-37" value="j&amp;lt;m" style="rhombus;whiteSpace=wrap;html=1;" vertex="1" parent="1">
          <mxGeometry x="310" y="700" width="80" height="80" as="geometry" />
        </mxCell>
        <mxCell id="2CmeU6WEaaHDGmVy13jQ-38" style="edgeStyle=orthogonalEdgeStyle;rounded=0;orthogonalLoop=1;jettySize=auto;html=1;entryX=0.5;entryY=0;entryDx=0;entryDy=0;" edge="1" parent="1" source="2CmeU6WEaaHDGmVy13jQ-41" target="2CmeU6WEaaHDGmVy13jQ-35">
          <mxGeometry relative="1" as="geometry">
            <Array as="points">
              <mxPoint x="970" y="630" />
              <mxPoint x="210" y="630" />
            </Array>
          </mxGeometry>
        </mxCell>
        <mxCell id="2CmeU6WEaaHDGmVy13jQ-39" style="edgeStyle=orthogonalEdgeStyle;rounded=0;orthogonalLoop=1;jettySize=auto;html=1;entryX=0.5;entryY=1;entryDx=0;entryDy=0;" edge="1" parent="1" source="2CmeU6WEaaHDGmVy13jQ-41" target="2CmeU6WEaaHDGmVy13jQ-37">
          <mxGeometry relative="1" as="geometry">
            <Array as="points">
              <mxPoint x="970" y="820" />
              <mxPoint x="350" y="820" />
            </Array>
          </mxGeometry>
        </mxCell>
        <mxCell id="2CmeU6WEaaHDGmVy13jQ-40" value="" style="edgeStyle=orthogonalEdgeStyle;rounded=0;orthogonalLoop=1;jettySize=auto;html=1;" edge="1" parent="1" source="2CmeU6WEaaHDGmVy13jQ-41" target="2CmeU6WEaaHDGmVy13jQ-49">
          <mxGeometry relative="1" as="geometry" />
        </mxCell>
        <mxCell id="2CmeU6WEaaHDGmVy13jQ-41" value="i++&lt;br&gt;j++" style="whiteSpace=wrap;html=1;" vertex="1" parent="1">
          <mxGeometry x="920" y="710" width="120" height="60" as="geometry" />
        </mxCell>
        <mxCell id="2CmeU6WEaaHDGmVy13jQ-42" value="" style="edgeStyle=orthogonalEdgeStyle;rounded=0;orthogonalLoop=1;jettySize=auto;html=1;" edge="1" parent="1" source="2CmeU6WEaaHDGmVy13jQ-43" target="2CmeU6WEaaHDGmVy13jQ-47">
          <mxGeometry relative="1" as="geometry" />
        </mxCell>
        <mxCell id="2CmeU6WEaaHDGmVy13jQ-43" value="i%2 != 0" style="rhombus;whiteSpace=wrap;html=1;" vertex="1" parent="1">
          <mxGeometry x="460" y="700" width="80" height="80" as="geometry" />
        </mxCell>
        <mxCell id="2CmeU6WEaaHDGmVy13jQ-44" value="" style="edgeStyle=orthogonalEdgeStyle;rounded=0;orthogonalLoop=1;jettySize=auto;html=1;" edge="1" parent="1" source="2CmeU6WEaaHDGmVy13jQ-45" target="2CmeU6WEaaHDGmVy13jQ-41">
          <mxGeometry relative="1" as="geometry" />
        </mxCell>
        <mxCell id="2CmeU6WEaaHDGmVy13jQ-45" value="output a[i][j]" style="shape=parallelogram;perimeter=parallelogramPerimeter;whiteSpace=wrap;html=1;fixedSize=1;" vertex="1" parent="1">
          <mxGeometry x="740" y="710" width="120" height="60" as="geometry" />
        </mxCell>
        <mxCell id="2CmeU6WEaaHDGmVy13jQ-46" value="" style="edgeStyle=orthogonalEdgeStyle;rounded=0;orthogonalLoop=1;jettySize=auto;html=1;" edge="1" parent="1" source="2CmeU6WEaaHDGmVy13jQ-47" target="2CmeU6WEaaHDGmVy13jQ-45">
          <mxGeometry relative="1" as="geometry" />
        </mxCell>
        <mxCell id="2CmeU6WEaaHDGmVy13jQ-47" value="sum +=a[i][j]" style="rounded=0;whiteSpace=wrap;html=1;" vertex="1" parent="1">
          <mxGeometry x="590" y="710" width="120" height="60" as="geometry" />
        </mxCell>
        <mxCell id="2CmeU6WEaaHDGmVy13jQ-48" style="edgeStyle=orthogonalEdgeStyle;rounded=0;orthogonalLoop=1;jettySize=auto;html=1;" edge="1" parent="1" source="2CmeU6WEaaHDGmVy13jQ-49">
          <mxGeometry relative="1" as="geometry">
            <mxPoint x="2190" y="740" as="targetPoint" />
          </mxGeometry>
        </mxCell>
        <mxCell id="2CmeU6WEaaHDGmVy13jQ-49" value="output sum" style="shape=parallelogram;perimeter=parallelogramPerimeter;whiteSpace=wrap;html=1;fixedSize=1;" vertex="1" parent="1">
          <mxGeometry x="1080" y="710" width="120" height="60" as="geometry" />
        </mxCell>
        <mxCell id="2CmeU6WEaaHDGmVy13jQ-50" value="" style="edgeStyle=orthogonalEdgeStyle;rounded=0;orthogonalLoop=1;jettySize=auto;html=1;" edge="1" parent="1" source="2CmeU6WEaaHDGmVy13jQ-51">
          <mxGeometry relative="1" as="geometry">
            <mxPoint x="310" y="990" as="targetPoint" />
          </mxGeometry>
        </mxCell>
        <mxCell id="2CmeU6WEaaHDGmVy13jQ-51" value="i&amp;lt;n" style="rhombus;whiteSpace=wrap;html=1;" vertex="1" parent="1">
          <mxGeometry x="170" y="950" width="80" height="80" as="geometry" />
        </mxCell>
        <mxCell id="2CmeU6WEaaHDGmVy13jQ-52" value="" style="edgeStyle=orthogonalEdgeStyle;rounded=0;orthogonalLoop=1;jettySize=auto;html=1;" edge="1" parent="1" source="2CmeU6WEaaHDGmVy13jQ-53">
          <mxGeometry relative="1" as="geometry">
            <mxPoint x="460" y="990" as="targetPoint" />
          </mxGeometry>
        </mxCell>
        <mxCell id="2CmeU6WEaaHDGmVy13jQ-53" value="j=1" style="rhombus;whiteSpace=wrap;html=1;" vertex="1" parent="1">
          <mxGeometry x="310" y="950" width="80" height="80" as="geometry" />
        </mxCell>
        <mxCell id="2CmeU6WEaaHDGmVy13jQ-54" style="edgeStyle=orthogonalEdgeStyle;rounded=0;orthogonalLoop=1;jettySize=auto;html=1;entryX=0.5;entryY=0;entryDx=0;entryDy=0;" edge="1" parent="1" source="2CmeU6WEaaHDGmVy13jQ-57" target="2CmeU6WEaaHDGmVy13jQ-51">
          <mxGeometry relative="1" as="geometry">
            <Array as="points">
              <mxPoint x="970" y="880" />
              <mxPoint x="210" y="880" />
            </Array>
          </mxGeometry>
        </mxCell>
        <mxCell id="2CmeU6WEaaHDGmVy13jQ-55" style="edgeStyle=orthogonalEdgeStyle;rounded=0;orthogonalLoop=1;jettySize=auto;html=1;entryX=0.5;entryY=1;entryDx=0;entryDy=0;" edge="1" parent="1" source="2CmeU6WEaaHDGmVy13jQ-57" target="2CmeU6WEaaHDGmVy13jQ-53">
          <mxGeometry relative="1" as="geometry">
            <Array as="points">
              <mxPoint x="970" y="1070" />
              <mxPoint x="350" y="1070" />
            </Array>
          </mxGeometry>
        </mxCell>
        <mxCell id="2CmeU6WEaaHDGmVy13jQ-56" value="" style="edgeStyle=orthogonalEdgeStyle;rounded=0;orthogonalLoop=1;jettySize=auto;html=1;" edge="1" parent="1" source="2CmeU6WEaaHDGmVy13jQ-57" target="2CmeU6WEaaHDGmVy13jQ-62">
          <mxGeometry relative="1" as="geometry" />
        </mxCell>
        <mxCell id="2CmeU6WEaaHDGmVy13jQ-57" value="i++" style="whiteSpace=wrap;html=1;" vertex="1" parent="1">
          <mxGeometry x="750" y="960" width="120" height="60" as="geometry" />
        </mxCell>
        <mxCell id="2CmeU6WEaaHDGmVy13jQ-58" value="" style="edgeStyle=orthogonalEdgeStyle;rounded=0;orthogonalLoop=1;jettySize=auto;html=1;" edge="1" parent="1" target="2CmeU6WEaaHDGmVy13jQ-60">
          <mxGeometry relative="1" as="geometry">
            <mxPoint x="540" y="990" as="sourcePoint" />
          </mxGeometry>
        </mxCell>
        <mxCell id="2CmeU6WEaaHDGmVy13jQ-59" value="" style="edgeStyle=orthogonalEdgeStyle;rounded=0;orthogonalLoop=1;jettySize=auto;html=1;" edge="1" parent="1" source="2CmeU6WEaaHDGmVy13jQ-60">
          <mxGeometry relative="1" as="geometry">
            <mxPoint x="750" y="990" as="targetPoint" />
          </mxGeometry>
        </mxCell>
        <mxCell id="2CmeU6WEaaHDGmVy13jQ-60" value="sum1 +=a[i][j]" style="rounded=0;whiteSpace=wrap;html=1;" vertex="1" parent="1">
          <mxGeometry x="460" y="960" width="120" height="60" as="geometry" />
        </mxCell>
        <mxCell id="2CmeU6WEaaHDGmVy13jQ-61" style="edgeStyle=orthogonalEdgeStyle;rounded=0;orthogonalLoop=1;jettySize=auto;html=1;" edge="1" parent="1" source="2CmeU6WEaaHDGmVy13jQ-62" target="2CmeU6WEaaHDGmVy13jQ-156">
          <mxGeometry relative="1" as="geometry" />
        </mxCell>
        <mxCell id="2CmeU6WEaaHDGmVy13jQ-62" value="output sum" style="shape=parallelogram;perimeter=parallelogramPerimeter;whiteSpace=wrap;html=1;fixedSize=1;" vertex="1" parent="1">
          <mxGeometry x="1070" y="880" width="120" height="60" as="geometry" />
        </mxCell>
        <mxCell id="2CmeU6WEaaHDGmVy13jQ-63" value="" style="edgeStyle=orthogonalEdgeStyle;rounded=0;orthogonalLoop=1;jettySize=auto;html=1;" edge="1" parent="1" source="2CmeU6WEaaHDGmVy13jQ-66" target="2CmeU6WEaaHDGmVy13jQ-51">
          <mxGeometry relative="1" as="geometry" />
        </mxCell>
        <mxCell id="2CmeU6WEaaHDGmVy13jQ-64" style="edgeStyle=orthogonalEdgeStyle;rounded=0;orthogonalLoop=1;jettySize=auto;html=1;entryX=0;entryY=0.5;entryDx=0;entryDy=0;" edge="1" parent="1" source="2CmeU6WEaaHDGmVy13jQ-66" target="2CmeU6WEaaHDGmVy13jQ-68">
          <mxGeometry relative="1" as="geometry">
            <mxPoint x="160" y="1150" as="targetPoint" />
            <Array as="points">
              <mxPoint x="70" y="1220" />
            </Array>
          </mxGeometry>
        </mxCell>
        <mxCell id="2CmeU6WEaaHDGmVy13jQ-65" style="edgeStyle=orthogonalEdgeStyle;rounded=0;orthogonalLoop=1;jettySize=auto;html=1;entryX=0;entryY=0.5;entryDx=0;entryDy=0;" edge="1" parent="1" source="2CmeU6WEaaHDGmVy13jQ-66" target="2CmeU6WEaaHDGmVy13jQ-82">
          <mxGeometry relative="1" as="geometry">
            <mxPoint x="10" y="1492.39990234375" as="targetPoint" />
            <Array as="points">
              <mxPoint x="10" y="990" />
              <mxPoint x="10" y="1470" />
            </Array>
          </mxGeometry>
        </mxCell>
        <mxCell id="2CmeU6WEaaHDGmVy13jQ-66" value="case 4" style="rhombus;whiteSpace=wrap;html=1;" vertex="1" parent="1">
          <mxGeometry x="30" y="950" width="80" height="80" as="geometry" />
        </mxCell>
        <mxCell id="2CmeU6WEaaHDGmVy13jQ-67" value="" style="edgeStyle=orthogonalEdgeStyle;rounded=0;orthogonalLoop=1;jettySize=auto;html=1;" edge="1" parent="1" source="2CmeU6WEaaHDGmVy13jQ-68">
          <mxGeometry relative="1" as="geometry">
            <mxPoint x="300" y="1220" as="targetPoint" />
          </mxGeometry>
        </mxCell>
        <mxCell id="2CmeU6WEaaHDGmVy13jQ-68" value="i&amp;lt;n" style="rhombus;whiteSpace=wrap;html=1;" vertex="1" parent="1">
          <mxGeometry x="160" y="1180" width="80" height="80" as="geometry" />
        </mxCell>
        <mxCell id="2CmeU6WEaaHDGmVy13jQ-69" value="" style="edgeStyle=orthogonalEdgeStyle;rounded=0;orthogonalLoop=1;jettySize=auto;html=1;" edge="1" parent="1" source="2CmeU6WEaaHDGmVy13jQ-70">
          <mxGeometry relative="1" as="geometry">
            <mxPoint x="450" y="1220" as="targetPoint" />
          </mxGeometry>
        </mxCell>
        <mxCell id="2CmeU6WEaaHDGmVy13jQ-70" value="j=m" style="rhombus;whiteSpace=wrap;html=1;" vertex="1" parent="1">
          <mxGeometry x="300" y="1180" width="80" height="80" as="geometry" />
        </mxCell>
        <mxCell id="2CmeU6WEaaHDGmVy13jQ-71" style="edgeStyle=orthogonalEdgeStyle;rounded=0;orthogonalLoop=1;jettySize=auto;html=1;entryX=0.5;entryY=0;entryDx=0;entryDy=0;" edge="1" parent="1" source="2CmeU6WEaaHDGmVy13jQ-74" target="2CmeU6WEaaHDGmVy13jQ-68">
          <mxGeometry relative="1" as="geometry">
            <Array as="points">
              <mxPoint x="960" y="1110" />
              <mxPoint x="200" y="1110" />
            </Array>
          </mxGeometry>
        </mxCell>
        <mxCell id="2CmeU6WEaaHDGmVy13jQ-72" style="edgeStyle=orthogonalEdgeStyle;rounded=0;orthogonalLoop=1;jettySize=auto;html=1;entryX=0.5;entryY=1;entryDx=0;entryDy=0;" edge="1" parent="1" source="2CmeU6WEaaHDGmVy13jQ-74" target="2CmeU6WEaaHDGmVy13jQ-70">
          <mxGeometry relative="1" as="geometry">
            <Array as="points">
              <mxPoint x="960" y="1300" />
              <mxPoint x="340" y="1300" />
            </Array>
          </mxGeometry>
        </mxCell>
        <mxCell id="2CmeU6WEaaHDGmVy13jQ-73" value="" style="edgeStyle=orthogonalEdgeStyle;rounded=0;orthogonalLoop=1;jettySize=auto;html=1;" edge="1" parent="1" source="2CmeU6WEaaHDGmVy13jQ-74" target="2CmeU6WEaaHDGmVy13jQ-79">
          <mxGeometry relative="1" as="geometry" />
        </mxCell>
        <mxCell id="2CmeU6WEaaHDGmVy13jQ-74" value="i++" style="whiteSpace=wrap;html=1;" vertex="1" parent="1">
          <mxGeometry x="740" y="1190" width="120" height="60" as="geometry" />
        </mxCell>
        <mxCell id="2CmeU6WEaaHDGmVy13jQ-75" value="" style="edgeStyle=orthogonalEdgeStyle;rounded=0;orthogonalLoop=1;jettySize=auto;html=1;" edge="1" parent="1" target="2CmeU6WEaaHDGmVy13jQ-77">
          <mxGeometry relative="1" as="geometry">
            <mxPoint x="530" y="1220" as="sourcePoint" />
          </mxGeometry>
        </mxCell>
        <mxCell id="2CmeU6WEaaHDGmVy13jQ-76" value="" style="edgeStyle=orthogonalEdgeStyle;rounded=0;orthogonalLoop=1;jettySize=auto;html=1;" edge="1" parent="1" source="2CmeU6WEaaHDGmVy13jQ-77">
          <mxGeometry relative="1" as="geometry">
            <mxPoint x="740" y="1220" as="targetPoint" />
          </mxGeometry>
        </mxCell>
        <mxCell id="2CmeU6WEaaHDGmVy13jQ-77" value="sum2 +=a[i][j]" style="rounded=0;whiteSpace=wrap;html=1;" vertex="1" parent="1">
          <mxGeometry x="450" y="1190" width="120" height="60" as="geometry" />
        </mxCell>
        <mxCell id="2CmeU6WEaaHDGmVy13jQ-78" style="edgeStyle=orthogonalEdgeStyle;rounded=0;orthogonalLoop=1;jettySize=auto;html=1;entryX=0.5;entryY=1;entryDx=0;entryDy=0;" edge="1" parent="1" source="2CmeU6WEaaHDGmVy13jQ-79" target="2CmeU6WEaaHDGmVy13jQ-156">
          <mxGeometry relative="1" as="geometry" />
        </mxCell>
        <mxCell id="2CmeU6WEaaHDGmVy13jQ-79" value="outpu2 sum" style="shape=parallelogram;perimeter=parallelogramPerimeter;whiteSpace=wrap;html=1;fixedSize=1;" vertex="1" parent="1">
          <mxGeometry x="1060" y="1110" width="120" height="60" as="geometry" />
        </mxCell>
        <mxCell id="2CmeU6WEaaHDGmVy13jQ-80" value="" style="edgeStyle=orthogonalEdgeStyle;rounded=0;orthogonalLoop=1;jettySize=auto;html=1;" edge="1" parent="1" source="2CmeU6WEaaHDGmVy13jQ-82" target="2CmeU6WEaaHDGmVy13jQ-84">
          <mxGeometry relative="1" as="geometry" />
        </mxCell>
        <mxCell id="2CmeU6WEaaHDGmVy13jQ-81" style="edgeStyle=orthogonalEdgeStyle;rounded=0;orthogonalLoop=1;jettySize=auto;html=1;entryX=0.5;entryY=0;entryDx=0;entryDy=0;" edge="1" parent="1" source="2CmeU6WEaaHDGmVy13jQ-82" target="2CmeU6WEaaHDGmVy13jQ-112">
          <mxGeometry relative="1" as="geometry" />
        </mxCell>
        <mxCell id="2CmeU6WEaaHDGmVy13jQ-82" value="case 7" style="rhombus;whiteSpace=wrap;html=1;" vertex="1" parent="1">
          <mxGeometry x="40" y="1430" width="80" height="80" as="geometry" />
        </mxCell>
        <mxCell id="2CmeU6WEaaHDGmVy13jQ-83" value="" style="edgeStyle=orthogonalEdgeStyle;rounded=0;orthogonalLoop=1;jettySize=auto;html=1;" edge="1" parent="1" source="2CmeU6WEaaHDGmVy13jQ-84">
          <mxGeometry relative="1" as="geometry">
            <mxPoint x="300" y="1470" as="targetPoint" />
          </mxGeometry>
        </mxCell>
        <mxCell id="2CmeU6WEaaHDGmVy13jQ-84" value="i&amp;lt;n" style="rhombus;whiteSpace=wrap;html=1;" vertex="1" parent="1">
          <mxGeometry x="160" y="1430" width="80" height="80" as="geometry" />
        </mxCell>
        <mxCell id="2CmeU6WEaaHDGmVy13jQ-85" value="" style="edgeStyle=orthogonalEdgeStyle;rounded=0;orthogonalLoop=1;jettySize=auto;html=1;" edge="1" parent="1" source="2CmeU6WEaaHDGmVy13jQ-86">
          <mxGeometry relative="1" as="geometry">
            <mxPoint x="450" y="1470" as="targetPoint" />
          </mxGeometry>
        </mxCell>
        <mxCell id="2CmeU6WEaaHDGmVy13jQ-86" value="j&amp;lt;m" style="rhombus;whiteSpace=wrap;html=1;" vertex="1" parent="1">
          <mxGeometry x="300" y="1430" width="80" height="80" as="geometry" />
        </mxCell>
        <mxCell id="2CmeU6WEaaHDGmVy13jQ-87" style="edgeStyle=orthogonalEdgeStyle;rounded=0;orthogonalLoop=1;jettySize=auto;html=1;entryX=0.5;entryY=0;entryDx=0;entryDy=0;" edge="1" parent="1" source="2CmeU6WEaaHDGmVy13jQ-90" target="2CmeU6WEaaHDGmVy13jQ-84">
          <mxGeometry relative="1" as="geometry">
            <Array as="points">
              <mxPoint x="960" y="1360" />
              <mxPoint x="200" y="1360" />
            </Array>
          </mxGeometry>
        </mxCell>
        <mxCell id="2CmeU6WEaaHDGmVy13jQ-88" style="edgeStyle=orthogonalEdgeStyle;rounded=0;orthogonalLoop=1;jettySize=auto;html=1;entryX=0.5;entryY=1;entryDx=0;entryDy=0;" edge="1" parent="1" source="2CmeU6WEaaHDGmVy13jQ-90" target="2CmeU6WEaaHDGmVy13jQ-86">
          <mxGeometry relative="1" as="geometry">
            <Array as="points">
              <mxPoint x="960" y="1550" />
              <mxPoint x="340" y="1550" />
            </Array>
          </mxGeometry>
        </mxCell>
        <mxCell id="2CmeU6WEaaHDGmVy13jQ-89" value="" style="edgeStyle=orthogonalEdgeStyle;rounded=0;orthogonalLoop=1;jettySize=auto;html=1;" edge="1" parent="1" source="2CmeU6WEaaHDGmVy13jQ-90" target="2CmeU6WEaaHDGmVy13jQ-94">
          <mxGeometry relative="1" as="geometry" />
        </mxCell>
        <mxCell id="2CmeU6WEaaHDGmVy13jQ-90" value="i++&lt;br&gt;i++" style="whiteSpace=wrap;html=1;" vertex="1" parent="1">
          <mxGeometry x="740" y="1440" width="120" height="60" as="geometry" />
        </mxCell>
        <mxCell id="2CmeU6WEaaHDGmVy13jQ-91" value="" style="edgeStyle=orthogonalEdgeStyle;rounded=0;orthogonalLoop=1;jettySize=auto;html=1;" edge="1" parent="1" target="2CmeU6WEaaHDGmVy13jQ-93">
          <mxGeometry relative="1" as="geometry">
            <mxPoint x="530" y="1470" as="sourcePoint" />
          </mxGeometry>
        </mxCell>
        <mxCell id="2CmeU6WEaaHDGmVy13jQ-92" value="" style="edgeStyle=orthogonalEdgeStyle;rounded=0;orthogonalLoop=1;jettySize=auto;html=1;" edge="1" parent="1" source="2CmeU6WEaaHDGmVy13jQ-93">
          <mxGeometry relative="1" as="geometry">
            <mxPoint x="740" y="1470" as="targetPoint" />
          </mxGeometry>
        </mxCell>
        <mxCell id="2CmeU6WEaaHDGmVy13jQ-93" value="sum +=a[i][j]" style="rounded=0;whiteSpace=wrap;html=1;" vertex="1" parent="1">
          <mxGeometry x="450" y="1440" width="120" height="60" as="geometry" />
        </mxCell>
        <mxCell id="2CmeU6WEaaHDGmVy13jQ-94" value="trung binh = sum /(m*n)" style="shape=parallelogram;perimeter=parallelogramPerimeter;whiteSpace=wrap;html=1;fixedSize=1;" vertex="1" parent="1">
          <mxGeometry x="1080" y="1440" width="220" height="60" as="geometry" />
        </mxCell>
        <mxCell id="2CmeU6WEaaHDGmVy13jQ-95" value="" style="edgeStyle=orthogonalEdgeStyle;rounded=0;orthogonalLoop=1;jettySize=auto;html=1;" edge="1" parent="1" source="2CmeU6WEaaHDGmVy13jQ-96" target="2CmeU6WEaaHDGmVy13jQ-107">
          <mxGeometry relative="1" as="geometry" />
        </mxCell>
        <mxCell id="2CmeU6WEaaHDGmVy13jQ-96" value="a[i][j] = trung binh" style="rhombus;whiteSpace=wrap;html=1;" vertex="1" parent="1">
          <mxGeometry x="1610" y="1430" width="140" height="80" as="geometry" />
        </mxCell>
        <mxCell id="2CmeU6WEaaHDGmVy13jQ-97" value="" style="edgeStyle=orthogonalEdgeStyle;rounded=0;orthogonalLoop=1;jettySize=auto;html=1;" edge="1" parent="1" target="2CmeU6WEaaHDGmVy13jQ-99">
          <mxGeometry relative="1" as="geometry">
            <mxPoint x="1285" y="1470" as="sourcePoint" />
          </mxGeometry>
        </mxCell>
        <mxCell id="2CmeU6WEaaHDGmVy13jQ-98" value="" style="edgeStyle=orthogonalEdgeStyle;rounded=0;orthogonalLoop=1;jettySize=auto;html=1;" edge="1" parent="1" source="2CmeU6WEaaHDGmVy13jQ-99">
          <mxGeometry relative="1" as="geometry">
            <mxPoint x="1465" y="1470" as="targetPoint" />
          </mxGeometry>
        </mxCell>
        <mxCell id="2CmeU6WEaaHDGmVy13jQ-99" value="i&amp;lt;n" style="rhombus;whiteSpace=wrap;html=1;" vertex="1" parent="1">
          <mxGeometry x="1325" y="1430" width="80" height="80" as="geometry" />
        </mxCell>
        <mxCell id="2CmeU6WEaaHDGmVy13jQ-100" value="" style="edgeStyle=orthogonalEdgeStyle;rounded=0;orthogonalLoop=1;jettySize=auto;html=1;" edge="1" parent="1" source="2CmeU6WEaaHDGmVy13jQ-101">
          <mxGeometry relative="1" as="geometry">
            <mxPoint x="1615" y="1470" as="targetPoint" />
          </mxGeometry>
        </mxCell>
        <mxCell id="2CmeU6WEaaHDGmVy13jQ-101" value="j&amp;lt;m" style="rhombus;whiteSpace=wrap;html=1;" vertex="1" parent="1">
          <mxGeometry x="1465" y="1430" width="80" height="80" as="geometry" />
        </mxCell>
        <mxCell id="2CmeU6WEaaHDGmVy13jQ-102" style="edgeStyle=orthogonalEdgeStyle;rounded=0;orthogonalLoop=1;jettySize=auto;html=1;entryX=0.5;entryY=0;entryDx=0;entryDy=0;" edge="1" parent="1" source="2CmeU6WEaaHDGmVy13jQ-105" target="2CmeU6WEaaHDGmVy13jQ-99">
          <mxGeometry relative="1" as="geometry">
            <Array as="points">
              <mxPoint x="2040" y="1360" />
              <mxPoint x="1365" y="1360" />
            </Array>
          </mxGeometry>
        </mxCell>
        <mxCell id="2CmeU6WEaaHDGmVy13jQ-103" style="edgeStyle=orthogonalEdgeStyle;rounded=0;orthogonalLoop=1;jettySize=auto;html=1;entryX=0.5;entryY=1;entryDx=0;entryDy=0;" edge="1" parent="1" source="2CmeU6WEaaHDGmVy13jQ-105" target="2CmeU6WEaaHDGmVy13jQ-101">
          <mxGeometry relative="1" as="geometry">
            <Array as="points">
              <mxPoint x="2040" y="1550" />
              <mxPoint x="1505" y="1550" />
            </Array>
          </mxGeometry>
        </mxCell>
        <mxCell id="2CmeU6WEaaHDGmVy13jQ-104" style="edgeStyle=orthogonalEdgeStyle;rounded=0;orthogonalLoop=1;jettySize=auto;html=1;" edge="1" parent="1" source="2CmeU6WEaaHDGmVy13jQ-105" target="2CmeU6WEaaHDGmVy13jQ-109">
          <mxGeometry relative="1" as="geometry" />
        </mxCell>
        <mxCell id="2CmeU6WEaaHDGmVy13jQ-105" value="i++&lt;br&gt;i++" style="whiteSpace=wrap;html=1;" vertex="1" parent="1">
          <mxGeometry x="1970" y="1440" width="120" height="60" as="geometry" />
        </mxCell>
        <mxCell id="2CmeU6WEaaHDGmVy13jQ-106" value="" style="edgeStyle=orthogonalEdgeStyle;rounded=0;orthogonalLoop=1;jettySize=auto;html=1;" edge="1" parent="1" source="2CmeU6WEaaHDGmVy13jQ-107" target="2CmeU6WEaaHDGmVy13jQ-105">
          <mxGeometry relative="1" as="geometry" />
        </mxCell>
        <mxCell id="2CmeU6WEaaHDGmVy13jQ-107" value="count++" style="rounded=0;whiteSpace=wrap;html=1;" vertex="1" parent="1">
          <mxGeometry x="1790" y="1440" width="120" height="60" as="geometry" />
        </mxCell>
        <mxCell id="2CmeU6WEaaHDGmVy13jQ-108" style="edgeStyle=orthogonalEdgeStyle;rounded=0;orthogonalLoop=1;jettySize=auto;html=1;" edge="1" parent="1" source="2CmeU6WEaaHDGmVy13jQ-109">
          <mxGeometry relative="1" as="geometry">
            <mxPoint x="2180" y="1140" as="targetPoint" />
          </mxGeometry>
        </mxCell>
        <mxCell id="2CmeU6WEaaHDGmVy13jQ-109" value="output count" style="shape=parallelogram;perimeter=parallelogramPerimeter;whiteSpace=wrap;html=1;fixedSize=1;" vertex="1" parent="1">
          <mxGeometry x="2180" y="1440" width="120" height="60" as="geometry" />
        </mxCell>
        <mxCell id="2CmeU6WEaaHDGmVy13jQ-110" value="" style="edgeStyle=orthogonalEdgeStyle;rounded=0;orthogonalLoop=1;jettySize=auto;html=1;" edge="1" parent="1" source="2CmeU6WEaaHDGmVy13jQ-112" target="2CmeU6WEaaHDGmVy13jQ-123">
          <mxGeometry relative="1" as="geometry" />
        </mxCell>
        <mxCell id="2CmeU6WEaaHDGmVy13jQ-111" value="" style="edgeStyle=orthogonalEdgeStyle;rounded=0;orthogonalLoop=1;jettySize=auto;html=1;" edge="1" parent="1" source="2CmeU6WEaaHDGmVy13jQ-112" target="2CmeU6WEaaHDGmVy13jQ-136">
          <mxGeometry relative="1" as="geometry" />
        </mxCell>
        <mxCell id="2CmeU6WEaaHDGmVy13jQ-112" value="case 6" style="rhombus;whiteSpace=wrap;html=1;" vertex="1" parent="1">
          <mxGeometry x="40" y="1650" width="80" height="80" as="geometry" />
        </mxCell>
        <mxCell id="2CmeU6WEaaHDGmVy13jQ-113" value="" style="edgeStyle=orthogonalEdgeStyle;rounded=0;orthogonalLoop=1;jettySize=auto;html=1;" edge="1" parent="1" source="2CmeU6WEaaHDGmVy13jQ-114">
          <mxGeometry relative="1" as="geometry">
            <mxPoint x="470" y="1690" as="targetPoint" />
          </mxGeometry>
        </mxCell>
        <mxCell id="2CmeU6WEaaHDGmVy13jQ-114" value="i&amp;lt;n" style="rhombus;whiteSpace=wrap;html=1;" vertex="1" parent="1">
          <mxGeometry x="330" y="1650" width="80" height="80" as="geometry" />
        </mxCell>
        <mxCell id="2CmeU6WEaaHDGmVy13jQ-115" value="" style="edgeStyle=orthogonalEdgeStyle;rounded=0;orthogonalLoop=1;jettySize=auto;html=1;" edge="1" parent="1" source="2CmeU6WEaaHDGmVy13jQ-117" target="2CmeU6WEaaHDGmVy13jQ-125">
          <mxGeometry relative="1" as="geometry">
            <mxPoint x="620" y="1690" as="targetPoint" />
          </mxGeometry>
        </mxCell>
        <mxCell id="2CmeU6WEaaHDGmVy13jQ-116" style="edgeStyle=orthogonalEdgeStyle;rounded=0;orthogonalLoop=1;jettySize=auto;html=1;entryX=0;entryY=0.5;entryDx=0;entryDy=0;" edge="1" parent="1" source="2CmeU6WEaaHDGmVy13jQ-117" target="2CmeU6WEaaHDGmVy13jQ-129">
          <mxGeometry relative="1" as="geometry" />
        </mxCell>
        <mxCell id="2CmeU6WEaaHDGmVy13jQ-117" value="j=m" style="rhombus;whiteSpace=wrap;html=1;" vertex="1" parent="1">
          <mxGeometry x="470" y="1650" width="80" height="80" as="geometry" />
        </mxCell>
        <mxCell id="2CmeU6WEaaHDGmVy13jQ-118" style="edgeStyle=orthogonalEdgeStyle;rounded=0;orthogonalLoop=1;jettySize=auto;html=1;entryX=0.5;entryY=0;entryDx=0;entryDy=0;" edge="1" parent="1" source="2CmeU6WEaaHDGmVy13jQ-121" target="2CmeU6WEaaHDGmVy13jQ-114">
          <mxGeometry relative="1" as="geometry">
            <Array as="points">
              <mxPoint x="1130" y="1580" />
              <mxPoint x="370" y="1580" />
            </Array>
          </mxGeometry>
        </mxCell>
        <mxCell id="2CmeU6WEaaHDGmVy13jQ-119" style="edgeStyle=orthogonalEdgeStyle;rounded=0;orthogonalLoop=1;jettySize=auto;html=1;entryX=0.5;entryY=1;entryDx=0;entryDy=0;" edge="1" parent="1" source="2CmeU6WEaaHDGmVy13jQ-121" target="2CmeU6WEaaHDGmVy13jQ-117">
          <mxGeometry relative="1" as="geometry">
            <Array as="points">
              <mxPoint x="1130" y="1770" />
              <mxPoint x="510" y="1770" />
            </Array>
          </mxGeometry>
        </mxCell>
        <mxCell id="2CmeU6WEaaHDGmVy13jQ-120" value="" style="edgeStyle=orthogonalEdgeStyle;rounded=0;orthogonalLoop=1;jettySize=auto;html=1;" edge="1" parent="1" source="2CmeU6WEaaHDGmVy13jQ-121" target="2CmeU6WEaaHDGmVy13jQ-133">
          <mxGeometry relative="1" as="geometry" />
        </mxCell>
        <mxCell id="2CmeU6WEaaHDGmVy13jQ-121" value="i++" style="whiteSpace=wrap;html=1;" vertex="1" parent="1">
          <mxGeometry x="1080" y="1660" width="120" height="60" as="geometry" />
        </mxCell>
        <mxCell id="2CmeU6WEaaHDGmVy13jQ-122" value="" style="edgeStyle=orthogonalEdgeStyle;rounded=0;orthogonalLoop=1;jettySize=auto;html=1;" edge="1" parent="1" source="2CmeU6WEaaHDGmVy13jQ-123" target="2CmeU6WEaaHDGmVy13jQ-114">
          <mxGeometry relative="1" as="geometry" />
        </mxCell>
        <mxCell id="2CmeU6WEaaHDGmVy13jQ-123" value="max = a[0][0]&lt;br&gt;min=[0][0]" style="rounded=0;whiteSpace=wrap;html=1;" vertex="1" parent="1">
          <mxGeometry x="160" y="1660" width="120" height="60" as="geometry" />
        </mxCell>
        <mxCell id="2CmeU6WEaaHDGmVy13jQ-124" value="" style="edgeStyle=orthogonalEdgeStyle;rounded=0;orthogonalLoop=1;jettySize=auto;html=1;" edge="1" parent="1" source="2CmeU6WEaaHDGmVy13jQ-125" target="2CmeU6WEaaHDGmVy13jQ-127">
          <mxGeometry relative="1" as="geometry" />
        </mxCell>
        <mxCell id="2CmeU6WEaaHDGmVy13jQ-125" value="max &amp;lt;a[i][j]" style="rhombus;whiteSpace=wrap;html=1;" vertex="1" parent="1">
          <mxGeometry x="620" y="1590" width="80" height="80" as="geometry" />
        </mxCell>
        <mxCell id="2CmeU6WEaaHDGmVy13jQ-126" style="edgeStyle=orthogonalEdgeStyle;rounded=0;orthogonalLoop=1;jettySize=auto;html=1;entryX=0;entryY=0.5;entryDx=0;entryDy=0;" edge="1" parent="1" source="2CmeU6WEaaHDGmVy13jQ-127" target="2CmeU6WEaaHDGmVy13jQ-121">
          <mxGeometry relative="1" as="geometry" />
        </mxCell>
        <mxCell id="2CmeU6WEaaHDGmVy13jQ-127" value="max = a[i][j]" style="whiteSpace=wrap;html=1;" vertex="1" parent="1">
          <mxGeometry x="760" y="1600" width="120" height="60" as="geometry" />
        </mxCell>
        <mxCell id="2CmeU6WEaaHDGmVy13jQ-128" value="" style="edgeStyle=orthogonalEdgeStyle;rounded=0;orthogonalLoop=1;jettySize=auto;html=1;" edge="1" parent="1" source="2CmeU6WEaaHDGmVy13jQ-129" target="2CmeU6WEaaHDGmVy13jQ-131">
          <mxGeometry relative="1" as="geometry" />
        </mxCell>
        <mxCell id="2CmeU6WEaaHDGmVy13jQ-129" value="min &amp;gt;a[i][j]" style="rhombus;whiteSpace=wrap;html=1;" vertex="1" parent="1">
          <mxGeometry x="620" y="1680" width="80" height="80" as="geometry" />
        </mxCell>
        <mxCell id="2CmeU6WEaaHDGmVy13jQ-130" style="edgeStyle=orthogonalEdgeStyle;rounded=0;orthogonalLoop=1;jettySize=auto;html=1;entryX=0;entryY=0.5;entryDx=0;entryDy=0;" edge="1" parent="1" source="2CmeU6WEaaHDGmVy13jQ-131" target="2CmeU6WEaaHDGmVy13jQ-121">
          <mxGeometry relative="1" as="geometry" />
        </mxCell>
        <mxCell id="2CmeU6WEaaHDGmVy13jQ-131" value="min = a[i][j]" style="whiteSpace=wrap;html=1;" vertex="1" parent="1">
          <mxGeometry x="760" y="1690" width="120" height="60" as="geometry" />
        </mxCell>
        <mxCell id="2CmeU6WEaaHDGmVy13jQ-132" style="edgeStyle=orthogonalEdgeStyle;rounded=0;orthogonalLoop=1;jettySize=auto;html=1;entryX=0.5;entryY=1;entryDx=0;entryDy=0;" edge="1" parent="1" source="2CmeU6WEaaHDGmVy13jQ-133" target="2CmeU6WEaaHDGmVy13jQ-109">
          <mxGeometry relative="1" as="geometry" />
        </mxCell>
        <mxCell id="2CmeU6WEaaHDGmVy13jQ-133" value="output max , min" style="shape=parallelogram;perimeter=parallelogramPerimeter;whiteSpace=wrap;html=1;fixedSize=1;" vertex="1" parent="1">
          <mxGeometry x="1280" y="1660" width="120" height="60" as="geometry" />
        </mxCell>
        <mxCell id="2CmeU6WEaaHDGmVy13jQ-134" value="" style="edgeStyle=orthogonalEdgeStyle;rounded=0;orthogonalLoop=1;jettySize=auto;html=1;" edge="1" parent="1" source="2CmeU6WEaaHDGmVy13jQ-136" target="2CmeU6WEaaHDGmVy13jQ-138">
          <mxGeometry relative="1" as="geometry" />
        </mxCell>
        <mxCell id="2CmeU6WEaaHDGmVy13jQ-135" value="" style="edgeStyle=orthogonalEdgeStyle;rounded=0;orthogonalLoop=1;jettySize=auto;html=1;" edge="1" parent="1" source="2CmeU6WEaaHDGmVy13jQ-136" target="2CmeU6WEaaHDGmVy13jQ-154">
          <mxGeometry relative="1" as="geometry" />
        </mxCell>
        <mxCell id="2CmeU6WEaaHDGmVy13jQ-136" value="case 8" style="rhombus;whiteSpace=wrap;html=1;" vertex="1" parent="1">
          <mxGeometry x="40" y="1900" width="80" height="80" as="geometry" />
        </mxCell>
        <mxCell id="2CmeU6WEaaHDGmVy13jQ-137" value="" style="edgeStyle=orthogonalEdgeStyle;rounded=0;orthogonalLoop=1;jettySize=auto;html=1;" edge="1" parent="1" source="2CmeU6WEaaHDGmVy13jQ-138">
          <mxGeometry relative="1" as="geometry">
            <mxPoint x="300" y="1940" as="targetPoint" />
          </mxGeometry>
        </mxCell>
        <mxCell id="2CmeU6WEaaHDGmVy13jQ-138" value="i&amp;lt;n" style="rhombus;whiteSpace=wrap;html=1;" vertex="1" parent="1">
          <mxGeometry x="160" y="1900" width="80" height="80" as="geometry" />
        </mxCell>
        <mxCell id="2CmeU6WEaaHDGmVy13jQ-139" value="" style="edgeStyle=orthogonalEdgeStyle;rounded=0;orthogonalLoop=1;jettySize=auto;html=1;" edge="1" parent="1" source="2CmeU6WEaaHDGmVy13jQ-140">
          <mxGeometry relative="1" as="geometry">
            <mxPoint x="450" y="1940" as="targetPoint" />
          </mxGeometry>
        </mxCell>
        <mxCell id="2CmeU6WEaaHDGmVy13jQ-140" value="j=m" style="rhombus;whiteSpace=wrap;html=1;" vertex="1" parent="1">
          <mxGeometry x="300" y="1900" width="80" height="80" as="geometry" />
        </mxCell>
        <mxCell id="2CmeU6WEaaHDGmVy13jQ-141" style="edgeStyle=orthogonalEdgeStyle;rounded=0;orthogonalLoop=1;jettySize=auto;html=1;entryX=0.5;entryY=0;entryDx=0;entryDy=0;exitX=0.5;exitY=0;exitDx=0;exitDy=0;" edge="1" parent="1" source="2CmeU6WEaaHDGmVy13jQ-150" target="2CmeU6WEaaHDGmVy13jQ-138">
          <mxGeometry relative="1" as="geometry">
            <Array as="points">
              <mxPoint x="1010" y="1830" />
              <mxPoint x="200" y="1830" />
            </Array>
            <mxPoint x="960" y="1940" as="sourcePoint" />
          </mxGeometry>
        </mxCell>
        <mxCell id="2CmeU6WEaaHDGmVy13jQ-142" style="edgeStyle=orthogonalEdgeStyle;rounded=0;orthogonalLoop=1;jettySize=auto;html=1;entryX=0.5;entryY=1;entryDx=0;entryDy=0;" edge="1" parent="1" target="2CmeU6WEaaHDGmVy13jQ-140">
          <mxGeometry relative="1" as="geometry">
            <Array as="points">
              <mxPoint x="700" y="1940" />
              <mxPoint x="700" y="2020" />
              <mxPoint x="340" y="2020" />
            </Array>
            <mxPoint x="700" y="1980" as="sourcePoint" />
          </mxGeometry>
        </mxCell>
        <mxCell id="2CmeU6WEaaHDGmVy13jQ-143" value="" style="edgeStyle=orthogonalEdgeStyle;rounded=0;orthogonalLoop=1;jettySize=auto;html=1;" edge="1" parent="1" source="2CmeU6WEaaHDGmVy13jQ-144" target="2CmeU6WEaaHDGmVy13jQ-146">
          <mxGeometry relative="1" as="geometry" />
        </mxCell>
        <mxCell id="2CmeU6WEaaHDGmVy13jQ-144" value="sum += a[i][j]" style="rounded=0;whiteSpace=wrap;html=1;" vertex="1" parent="1">
          <mxGeometry x="450" y="1910" width="120" height="60" as="geometry" />
        </mxCell>
        <mxCell id="2CmeU6WEaaHDGmVy13jQ-145" value="" style="edgeStyle=orthogonalEdgeStyle;rounded=0;orthogonalLoop=1;jettySize=auto;html=1;" edge="1" parent="1" source="2CmeU6WEaaHDGmVy13jQ-146" target="2CmeU6WEaaHDGmVy13jQ-148">
          <mxGeometry relative="1" as="geometry" />
        </mxCell>
        <mxCell id="2CmeU6WEaaHDGmVy13jQ-146" value="j++" style="whiteSpace=wrap;html=1;rounded=0;" vertex="1" parent="1">
          <mxGeometry x="650" y="1910" width="120" height="60" as="geometry" />
        </mxCell>
        <mxCell id="2CmeU6WEaaHDGmVy13jQ-147" value="" style="edgeStyle=orthogonalEdgeStyle;rounded=0;orthogonalLoop=1;jettySize=auto;html=1;" edge="1" parent="1" source="2CmeU6WEaaHDGmVy13jQ-148" target="2CmeU6WEaaHDGmVy13jQ-150">
          <mxGeometry relative="1" as="geometry" />
        </mxCell>
        <mxCell id="2CmeU6WEaaHDGmVy13jQ-148" value="max &amp;lt; sum" style="rhombus;whiteSpace=wrap;html=1;" vertex="1" parent="1">
          <mxGeometry x="810" y="1900" width="80" height="80" as="geometry" />
        </mxCell>
        <mxCell id="2CmeU6WEaaHDGmVy13jQ-149" value="" style="edgeStyle=orthogonalEdgeStyle;rounded=0;orthogonalLoop=1;jettySize=auto;html=1;" edge="1" parent="1" source="2CmeU6WEaaHDGmVy13jQ-150" target="2CmeU6WEaaHDGmVy13jQ-152">
          <mxGeometry relative="1" as="geometry" />
        </mxCell>
        <mxCell id="2CmeU6WEaaHDGmVy13jQ-150" value="max =sum&lt;br&gt;temp = i&lt;br&gt;sum = 0&lt;br&gt;i++" style="whiteSpace=wrap;html=1;" vertex="1" parent="1">
          <mxGeometry x="950" y="1910" width="190" height="100" as="geometry" />
        </mxCell>
        <mxCell id="2CmeU6WEaaHDGmVy13jQ-151" style="edgeStyle=orthogonalEdgeStyle;rounded=0;orthogonalLoop=1;jettySize=auto;html=1;" edge="1" parent="1" source="2CmeU6WEaaHDGmVy13jQ-152">
          <mxGeometry relative="1" as="geometry">
            <mxPoint x="2240" y="1680" as="targetPoint" />
          </mxGeometry>
        </mxCell>
        <mxCell id="2CmeU6WEaaHDGmVy13jQ-152" value="output temp" style="shape=parallelogram;perimeter=parallelogramPerimeter;whiteSpace=wrap;html=1;fixedSize=1;" vertex="1" parent="1">
          <mxGeometry x="1255" y="1930" width="120" height="60" as="geometry" />
        </mxCell>
        <mxCell id="2CmeU6WEaaHDGmVy13jQ-153" value="" style="edgeStyle=orthogonalEdgeStyle;rounded=0;orthogonalLoop=1;jettySize=auto;html=1;" edge="1" parent="1" source="2CmeU6WEaaHDGmVy13jQ-154" target="2CmeU6WEaaHDGmVy13jQ-155">
          <mxGeometry relative="1" as="geometry" />
        </mxCell>
        <mxCell id="2CmeU6WEaaHDGmVy13jQ-154" value="case 9" style="rhombus;whiteSpace=wrap;html=1;" vertex="1" parent="1">
          <mxGeometry x="40" y="2080" width="80" height="80" as="geometry" />
        </mxCell>
        <mxCell id="2CmeU6WEaaHDGmVy13jQ-155" value="end" style="shape=parallelogram;perimeter=parallelogramPerimeter;whiteSpace=wrap;html=1;fixedSize=1;" vertex="1" parent="1">
          <mxGeometry x="180" y="2090" width="120" height="60" as="geometry" />
        </mxCell>
        <mxCell id="2CmeU6WEaaHDGmVy13jQ-156" value="end" style="ellipse;whiteSpace=wrap;html=1;" vertex="1" parent="1">
          <mxGeometry x="2125" y="830" width="120" height="80" as="geometry" />
        </mxCell>
      </root>
    </mxGraphModel>
  </diagram>
</mxfile>
